<svg width="70" height="28" viewBox="0 0 70 28" fill="none" xmlns="http://www.w3.org/2000/svg">
<path fill-rule="evenodd" clip-rule="evenodd" d="M42.1569 10.2198C41.3099 10.4574 39.14 10.1567 38.6833 10.5774L34.2286 17.3244C34.2632 17.5734 30.1052 23.7283 29.4532 24.7591C29.0702 25.3643 28.0056 26.8197 27.9609 27.5435C31.5866 27.6511 35.2802 27.6657 38.964 27.6221C40.7921 27.6004 42.6231 27.6003 44.4506 27.5732C46.2978 27.5456 47.5755 27.0553 48.5516 26.1417C49.3181 25.4242 50.2188 23.9304 50.8459 22.9581L56.7871 13.7121C57.1089 13.2175 57.0908 12.9643 57.5776 13.1334L57.6263 13.3029C57.6509 13.5961 57.6025 13.4233 57.7784 13.4598C57.7822 13.8143 57.7775 13.724 58.0148 13.8369C57.976 14.0324 57.9236 14.0144 58.1065 13.9579C58.0881 14.2989 58.0391 14.1512 58.2198 14.1605C58.1736 14.3549 58.1235 14.3288 58.3104 14.2924C58.2891 14.607 58.2359 14.4665 58.4287 14.4755C58.3796 14.6728 58.3303 14.6416 58.522 14.6153C58.4878 14.9318 58.4384 14.7721 58.6432 14.8268L58.522 14.6153C58.5862 14.405 58.6379 14.4343 58.4287 14.4755L58.3104 14.2924C58.376 14.0891 58.4242 14.1177 58.2198 14.1605C58.2518 13.7152 58.2291 14.0435 58.1065 13.9579C58.1649 13.7724 58.2038 13.8059 58.0148 13.8369C57.9738 13.5348 57.9876 13.6254 57.7784 13.4598L57.6263 13.3029L57.5776 13.1334C57.2112 12.6823 57.8366 12.094 58.3214 11.2608C58.5851 10.808 58.5407 10.9011 58.7848 10.7233C58.8047 10.7415 58.8337 10.7654 58.8457 10.7762C58.8575 10.7867 58.8925 10.8174 58.9055 10.8291L59.0734 10.9859C59.0335 11.1996 58.9616 11.1951 59.1466 11.1373C59.1542 11.5419 59.1443 11.2508 59.2657 11.3233C59.1831 11.5632 59.1504 11.4938 59.4139 11.4938C59.3916 11.2454 59.4705 11.2631 59.2657 11.3233C59.3024 10.9899 59.3385 11.1525 59.1466 11.1373C59.2002 10.9349 59.2614 10.9559 59.0734 10.9859C58.9683 10.5407 58.745 10.5168 58.2513 10.497L53.8295 10.4378C52.8992 10.4161 51.982 10.3734 51.0919 10.3652C50.2942 10.3579 48.7848 10.5381 48.4004 10.0666C47.9067 9.27494 49.2958 8.437 46.7669 8.46293C46.2374 8.46829 45.3646 8.3433 44.9828 8.55206C44.7467 8.9397 44.9636 9.714 44.7812 10.2447C44.1669 10.4601 42.7478 10.4413 42.1569 10.2197V10.2198Z" fill="white"/>
<path fill-rule="evenodd" clip-rule="evenodd" d="M15.5276 0.298745L15.4126 0.379612L15.3355 0.512077L15.2644 0.652715L14.915 1.14143C15.0301 0.928102 15.1062 0.865167 15.2644 0.652715L15.3355 0.512077L15.4126 0.379612L15.5276 0.298745C15.8221 0.490541 16.2992 1.27979 16.614 1.6879C17.0698 2.27876 17.3328 2.58289 16.8076 3.3738C17.3323 2.78242 17.4937 3.03575 17.8843 3.5809C18.1745 3.98576 18.3688 4.34808 18.6435 4.82115C19.911 7.00404 21.9445 9.97591 23.3174 12.1634C24.3415 13.795 25.399 15.6421 26.9511 16.5458C29.0114 17.7455 31.6839 17.0195 34.2286 17.3244L38.6833 10.5774C39.14 10.1566 41.3099 10.4574 42.1569 10.2197L35.8415 0.275627C35.5146 -0.118776 34.4452 0.0269611 33.7979 0.0236209L17.5616 0.0353122C16.6944 0.0335542 16.0554 -0.134333 15.5276 0.298657V0.298745Z" fill="white"/>
<path fill-rule="evenodd" clip-rule="evenodd" d="M0.0012766 27.584C1.74959 27.7469 12.6318 27.6102 15.3476 27.6096C17.9139 27.6089 20.4803 27.6121 23.0464 27.611C24.3081 27.6104 25.352 27.3957 26.1302 26.8091C26.5567 26.4875 27.5829 25.2193 27.7003 24.4417C25.7067 24.2047 7.14228 24.2513 4.51797 24.4015C2.93341 24.4923 2.55272 24.469 1.4706 25.2384C0.995414 25.5763 -0.0427618 26.6562 0.00136351 27.5841L0.0012766 27.584Z" fill="white"/>
<path fill-rule="evenodd" clip-rule="evenodd" d="M29.7346 20.1884C27.3273 20.0504 24.5469 20.174 22.0977 20.172L6.59554 20.17C5.25508 20.1763 4.38884 20.3138 3.54544 20.9852C3.40832 21.0942 1.61211 22.8727 2.22142 23.2346C2.6828 23.5086 21.9396 23.3046 25.1551 23.3074C26.7446 23.3087 27.2995 23.2276 28.2351 22.4847C28.7291 22.0926 29.6556 21.0553 29.7345 20.1885L29.7346 20.1884Z" fill="white"/>
<path fill-rule="evenodd" clip-rule="evenodd" d="M15.4142 0.379607L15.3371 0.512071L15.266 0.65271C15.1078 0.865162 15.0317 0.928096 14.9166 1.14143L14.8356 1.26413C14.1811 2.57735 13.0891 4.03928 12.2839 5.26319C11.3858 6.62835 10.5332 7.93919 9.71526 9.24537C9.16185 10.1293 4.79977 16.6977 4.75195 17.2356C8.39625 17.6206 10.14 13.7647 11.5974 11.5305C12.2274 10.5646 16.0477 4.73087 16.5293 3.79615L16.6089 3.69393L16.7529 3.52683L16.8092 3.37389C17.3344 2.58297 17.0714 2.27884 16.6156 1.68799C16.3007 1.27978 15.8236 0.490624 15.5292 0.298828L15.4142 0.379695V0.379607Z" fill="white"/>
<path fill-rule="evenodd" clip-rule="evenodd" d="M57.5768 13.1345L57.6255 13.304L57.7776 13.4609C57.9868 13.6265 57.973 13.5359 58.0139 13.838C58.2029 13.807 58.1641 13.7735 58.1057 13.959C58.2282 14.0446 58.251 13.7163 58.219 14.1616C58.4234 14.1188 58.3752 14.0902 58.3096 14.2935L58.4279 14.4766C58.6371 14.4354 58.5854 14.4061 58.5212 14.6164L58.6424 14.8279C58.7559 15.3775 62.497 21.0725 63.1946 22.1624C64.6856 24.4907 66.039 27.6704 69.7632 27.5227C69.6248 26.6878 63.3325 17.4122 62.0341 15.4116C61.6922 14.8847 59.6816 11.6621 59.4132 11.495C59.1497 11.495 59.1824 11.5644 59.2649 11.3246C59.1435 11.2522 59.1535 11.5433 59.1459 11.1385C58.9609 11.1963 59.0328 11.2008 59.0727 10.9872L58.9048 10.8304C58.8918 10.8187 58.8567 10.7881 58.8449 10.7774C58.833 10.7667 58.804 10.7427 58.784 10.7246C58.5399 10.9023 58.5843 10.8092 58.3207 11.2621C57.836 12.0953 57.2105 12.6835 57.5769 13.1347L57.5768 13.1345Z" fill="white"/>
<path fill-rule="evenodd" clip-rule="evenodd" d="M56.3028 21.9881L56.3465 19.8408L54.1622 19.8184C54.1323 20.1983 54.138 20.5237 54.1352 20.8788C54.134 21.05 54.123 21.2563 54.1253 21.4199C54.133 21.9718 54.0296 22.1876 56.3028 21.9882V21.9881Z" fill="white"/>
<path fill-rule="evenodd" clip-rule="evenodd" d="M14.5527 10.7573L14.554 11.1789L14.5584 12.0402L16.7271 12.0736L16.7412 9.87951L16.1939 9.86914L16.0884 9.87072L14.5552 9.876L14.5527 10.7573Z" fill="white"/>
<path fill-rule="evenodd" clip-rule="evenodd" d="M17.7595 12.0397L19.9252 12.0663L19.942 9.87988L17.7559 9.88006L17.7595 12.0397Z" fill="white"/>
<path fill-rule="evenodd" clip-rule="evenodd" d="M57.3633 21.9868L59.5291 21.985L59.5444 19.8177L57.3981 19.8086L57.3633 21.9868Z" fill="white"/>
<path fill-rule="evenodd" clip-rule="evenodd" d="M54.1504 25.0797L56.0364 25.1188C56.3313 25.0633 56.1905 25.0932 56.3082 25.029L56.3298 23.0657L55.7324 22.9584C53.948 22.8848 54.1457 22.9132 54.1404 23.6081C54.1366 24.0866 54.1209 24.6063 54.1505 25.0797H54.1504Z" fill="white"/>
<path fill-rule="evenodd" clip-rule="evenodd" d="M57.3652 25.1174L59.5332 25.1323L59.5366 22.9797L57.408 22.9609L57.3652 25.1174Z" fill="white"/>
<path fill-rule="evenodd" clip-rule="evenodd" d="M17.7559 15.1852L19.9162 15.211L19.9313 13.0634L17.7828 13.0479L17.7559 15.1852Z" fill="white"/>
<path fill-rule="evenodd" clip-rule="evenodd" d="M14.6765 15.1462L16.7211 15.2138L16.7314 13.0581L14.5829 13.0498L14.5742 14.8647C14.6161 15.0578 14.6241 15.0549 14.6766 15.1462H14.6765Z" fill="white"/>
</svg>
