<svg width="33" height="35" viewBox="0 0 33 35" fill="none" xmlns="http://www.w3.org/2000/svg">
<path d="M0.75 16.498C0.749067 16.2359 0.800056 15.9756 0.900391 15.7334C1.0007 15.4914 1.14806 15.2715 1.33398 15.0869L1.33691 15.085L15.0869 1.33496L15.0859 1.33398C15.4609 0.959514 15.97 0.750005 16.5 0.75C17.0302 0.75 17.539 0.960192 17.9141 1.33496L31.666 15.0869C31.8519 15.2715 31.9993 15.4914 32.0996 15.7334C32.1999 15.9756 32.2509 16.2359 32.25 16.498V33C32.25 33.1657 32.1845 33.3252 32.0674 33.4424C31.9502 33.5596 31.7908 33.625 31.625 33.625H1.375C1.20924 33.625 1.04982 33.5596 0.932617 33.4424C0.815553 33.3252 0.75 33.1657 0.75 33V16.498Z" stroke="#4361EE" stroke-width="1.5"/>
</svg>
